<svg width="891" height="110" viewBox="0 0 891 110" fill="none" xmlns="http://www.w3.org/2000/svg">
<g clip-path="url(#clip0_2045_695)">
<path d="M816.791 148.303V31.8942H777.532V2.79199H891.207V31.8942H851.753V148.303H816.791Z" fill="#F6F6F6"/>
<path d="M714.336 150.784C705.091 150.784 696.367 149.222 688.164 146.097C679.961 142.972 672.669 138.284 666.288 132.034C660.038 125.654 655.09 117.841 651.444 108.596C647.929 99.2209 646.171 88.4133 646.171 76.1735C646.171 64.0639 647.994 53.3214 651.64 43.9462C655.416 34.4408 660.494 26.4329 666.874 19.9223C673.385 13.4117 680.807 8.46372 689.141 5.07823C697.474 1.69274 706.263 0 715.508 0C725.014 0 733.477 1.88806 740.899 5.66418C748.452 9.4403 754.702 13.8675 759.65 18.9457L741.485 41.2118C737.84 37.8263 733.998 35.0919 729.962 33.0085C725.925 30.9251 721.303 29.8834 716.094 29.8834C709.844 29.8834 704.115 31.7064 698.906 35.3523C693.698 38.868 689.531 44.0114 686.406 50.7823C683.411 57.4231 681.914 65.4962 681.914 75.0016C681.914 84.6372 683.281 92.9056 686.016 99.8068C688.88 106.578 692.852 111.786 697.93 115.432C703.008 118.948 708.933 120.706 715.704 120.706C721.563 120.706 726.772 119.404 731.329 116.799C736.017 114.195 740.053 111.07 743.439 107.424L761.798 129.3C755.678 136.461 748.582 141.865 740.509 145.511C732.566 149.027 723.842 150.784 714.336 150.784Z" fill="#F6F6F6"/>
<path d="M539.833 148.511V3H632.022V32.1022H574.795V59.0559H623.428V88.3534H574.795V119.213H634.171V148.511H539.833Z" fill="#F6F6F6"/>
<path d="M407.401 148.511V3H442.948L479.082 72.7281L493.34 104.955H494.317C493.405 97.2729 492.363 88.6138 491.192 78.9782C490.15 69.2124 489.629 59.9674 489.629 51.2432V3H522.833V148.511H487.285L451.347 78.3923L437.089 46.5556H436.112C436.894 54.6287 437.805 63.418 438.847 72.9234C440.019 82.2986 440.605 91.4134 440.605 100.268V148.511H407.401Z" fill="#F6F6F6"/>
<path d="M274.969 148.511V3H310.516L346.65 72.7281L360.908 104.955H361.885C360.973 97.2729 359.931 88.6138 358.759 78.9782C357.718 69.2124 357.197 59.9674 357.197 51.2432V3H390.401V148.511H354.853L318.915 78.3923L304.657 46.5556H303.68C304.461 54.6287 305.373 63.418 306.415 72.9234C307.586 82.2986 308.172 91.4134 308.172 100.268V148.511H274.969Z" fill="#F6F6F6"/>
<path d="M186.959 150.784C173.808 150.784 162.219 147.79 152.193 141.8C142.167 135.68 134.354 126.956 128.755 115.627C123.156 104.169 120.356 90.4967 120.356 74.611C120.356 58.7252 123.156 45.2484 128.755 34.1804C134.354 22.9823 142.167 14.5185 152.193 8.78924C162.219 2.92975 173.808 0 186.959 0C200.241 0 211.83 2.92975 221.726 8.78924C231.752 14.6487 239.564 23.1125 245.164 34.1804C250.763 45.2484 253.562 58.7252 253.562 74.611C253.562 90.4967 250.763 104.169 245.164 115.627C239.564 126.956 231.752 135.68 221.726 141.8C211.83 147.79 200.241 150.784 186.959 150.784ZM186.959 120.706C193.34 120.706 198.808 118.818 203.366 115.042C208.053 111.265 211.634 105.927 214.108 99.0256C216.712 92.1244 218.015 83.9862 218.015 74.611C218.015 65.2358 216.712 57.2278 214.108 50.587C211.634 43.816 208.053 38.6727 203.366 35.157C198.808 31.6413 193.34 29.8834 186.959 29.8834C180.579 29.8834 175.045 31.6413 170.357 35.157C165.8 38.6727 162.284 43.816 159.81 50.587C157.336 57.2278 156.099 65.2358 156.099 74.611C156.099 83.9862 157.336 92.1244 159.81 99.0256C162.284 105.927 165.8 111.265 170.357 115.042C175.045 118.818 180.579 120.706 186.959 120.706Z" fill="#F6F6F6"/>
<path d="M68.1655 150.784C58.9205 150.784 50.1964 149.222 41.9931 146.097C33.7898 142.972 26.498 138.284 20.1176 132.034C13.8675 125.654 8.91946 117.841 5.27355 108.596C1.75785 99.2209 0 88.4133 0 76.1735C0 64.0639 1.82295 53.3214 5.46887 43.9462C9.24499 34.4408 14.3232 26.4329 20.7036 19.9223C27.2141 13.4117 34.6362 8.46372 42.9697 5.07823C51.3032 1.69274 60.0924 0 69.3374 0C78.8428 0 87.3065 1.88806 94.7286 5.66418C102.281 9.4403 108.531 13.8675 113.479 18.9457L95.3145 41.2118C91.6686 37.8263 87.8274 35.0919 83.7909 33.0085C79.7543 30.9251 75.1318 29.8834 69.9234 29.8834C63.6732 29.8834 57.9439 31.7064 52.7355 35.3523C47.5271 38.868 43.3603 44.0114 40.2352 50.7823C37.2404 57.4231 35.743 65.4962 35.743 75.0016C35.743 84.6372 37.1102 92.9056 39.8446 99.8068C42.7093 106.578 46.6807 111.786 51.7589 115.432C56.8371 118.948 62.7618 120.706 69.5327 120.706C75.3922 120.706 80.6007 119.404 85.1581 116.799C89.8457 114.195 93.8822 111.07 97.2677 107.424L115.627 129.3C109.508 136.461 102.411 141.865 94.338 145.511C86.3951 149.027 77.6709 150.784 68.1655 150.784Z" fill="#F6F6F6"/>
</g>
<defs>
<clipPath id="clip0_2045_695">
<rect width="891" height="110" fill="white"/>
</clipPath>
</defs>
</svg>
