<svg width="768" height="95" viewBox="0 0 768 95" fill="none" xmlns="http://www.w3.org/2000/svg">
<g clip-path="url(#clip0_2045_706)">
<path d="M704.035 127.83V27.491H670.196V2.40625H768.178V27.491H734.171V127.83H704.035Z" fill="#F6F6F6"/>
<path d="M615.724 129.969C607.755 129.969 600.236 128.622 593.165 125.929C586.094 123.235 579.809 119.194 574.309 113.807C568.922 108.308 564.657 101.573 561.514 93.6047C558.484 85.5237 556.969 76.2081 556.969 65.658C556.969 55.22 558.54 45.9606 561.683 37.8796C564.937 29.6864 569.315 22.7839 574.814 17.1721C580.426 11.5603 586.824 7.29533 594.007 4.37719C601.19 1.45906 608.766 0 616.734 0C624.928 0 632.223 1.62742 638.62 4.88226C645.13 8.13709 650.517 11.9531 654.782 16.3303L639.125 35.5226C635.983 32.6045 632.672 30.2476 629.193 28.4518C625.713 26.656 621.729 25.7581 617.239 25.7581C611.852 25.7581 606.914 27.3294 602.424 30.472C597.935 33.5024 594.343 37.9357 591.65 43.772C589.068 49.496 587.777 56.4546 587.777 64.6478C587.777 72.9533 588.956 80.0803 591.313 86.0288C593.782 91.865 597.205 96.3545 601.582 99.4971C605.96 102.527 611.066 104.043 616.903 104.043C621.953 104.043 626.443 102.92 630.371 100.676C634.411 98.4308 637.891 95.7372 640.809 92.5946L656.634 111.45C651.359 117.623 645.242 122.281 638.284 125.424C631.437 128.454 623.917 129.969 615.724 129.969Z" fill="#F6F6F6"/>
<path d="M465.311 128.01V2.58594H544.774V27.6707H495.446V50.9035H537.366V76.1565H495.446V102.756H546.625V128.01H465.311Z" fill="#F6F6F6"/>
<path d="M351.16 128.01V2.58594H381.801L412.946 62.6882L425.236 90.4666H426.078C425.292 83.8447 424.394 76.381 423.384 68.0756C422.486 59.6579 422.037 51.6891 422.037 44.1693V2.58594H450.657V128.01H420.017L389.04 67.5705L376.75 40.1288H375.908C376.582 47.0875 377.367 54.6634 378.265 62.8566C379.275 70.9376 379.781 78.7941 379.781 86.4261V128.01H351.16Z" fill="#F6F6F6"/>
<path d="M237.01 128.01V2.58594H267.65L298.796 62.6882L311.086 90.4666H311.927C311.142 83.8447 310.244 76.381 309.234 68.0756C308.336 59.6579 307.887 51.6891 307.887 44.1693V2.58594H336.507V128.01H305.867L274.89 67.5705L262.6 40.1288H261.758C262.431 47.0875 263.217 54.6634 264.115 62.8566C265.125 70.9376 265.63 78.7941 265.63 86.4261V128.01H237.01Z" fill="#F6F6F6"/>
<path d="M161.15 129.969C149.814 129.969 139.825 127.388 131.183 122.225C122.541 116.95 115.807 109.43 110.981 99.6654C106.155 89.7887 103.741 78.0039 103.741 64.3111C103.741 50.6184 106.155 39.002 110.981 29.4619C115.807 19.8096 122.541 12.5143 131.183 7.57591C139.825 2.52531 149.814 0 161.15 0C172.598 0 182.587 2.52531 191.117 7.57591C199.759 12.6265 206.493 19.9219 211.32 29.4619C216.146 39.002 218.559 50.6184 218.559 64.3111C218.559 78.0039 216.146 89.7887 211.32 99.6654C206.493 109.43 199.759 116.95 191.117 122.225C182.587 127.388 172.598 129.969 161.15 129.969ZM161.15 104.043C166.65 104.043 171.364 102.415 175.292 99.1604C179.332 95.9055 182.419 91.3039 184.551 85.3554C186.796 79.4069 187.918 72.3921 187.918 64.3111C187.918 56.2302 186.796 49.3276 184.551 43.6036C182.419 37.7674 179.332 33.334 175.292 30.3037C171.364 27.2733 166.65 25.7581 161.15 25.7581C155.651 25.7581 150.881 27.2733 146.84 30.3037C142.912 33.334 139.881 37.7674 137.749 43.6036C135.616 49.3276 134.55 56.2302 134.55 64.3111C134.55 72.3921 135.616 79.4069 137.749 85.3554C139.881 91.3039 142.912 95.9055 146.84 99.1604C150.881 102.415 155.651 104.043 161.15 104.043Z" fill="#F6F6F6"/>
<path d="M58.7555 129.969C50.7867 129.969 43.2669 128.622 36.1961 125.929C29.1252 123.235 22.84 119.194 17.3404 113.807C11.9531 108.308 7.68816 101.573 4.54555 93.6047C1.51518 85.5237 0 76.2081 0 65.658C0 55.22 1.5713 45.9606 4.71391 37.8796C7.96874 29.6864 12.3459 22.7839 17.8455 17.1721C23.4573 11.5603 29.8547 7.29533 37.0378 4.37719C44.2209 1.45906 51.7968 0 59.7656 0C67.9588 0 75.2541 1.62742 81.6516 4.88226C88.1613 8.13709 93.5486 11.9531 97.8135 16.3303L82.1566 35.5226C79.014 32.6045 75.7031 30.2476 72.2238 28.4518C68.7445 26.656 64.7601 25.7581 60.2706 25.7581C54.8833 25.7581 49.945 27.3294 45.4555 30.472C40.9661 33.5024 37.3745 37.9357 34.6809 43.772C32.0994 49.496 30.8087 56.4546 30.8087 64.6478C30.8087 72.9533 31.9872 80.0803 34.3442 86.0288C36.8134 91.865 40.2365 96.3545 44.6137 99.4971C48.9909 102.527 54.0977 104.043 59.9339 104.043C64.9846 104.043 69.474 102.92 73.4022 100.676C77.4427 98.4308 80.922 95.7372 83.8402 92.5946L99.6654 111.45C94.3903 117.623 88.2735 122.281 81.3149 125.424C74.4685 128.454 66.9487 129.969 58.7555 129.969Z" fill="#F6F6F6"/>
</g>
<defs>
<clipPath id="clip0_2045_706">
<rect width="768" height="95" fill="white"/>
</clipPath>
</defs>
</svg>
